#!OML:ASF I:\Actors\actors\Patient Classification 2\Patient 1\Session 1\actor1.ASF
:FULLY-SPECIFIED
:DEGREES
501
root -0.393761 18.912 5.02336 7.01831 2.7769 0.289043
lowerback 21.8457 -0.960669 0.57563
upperback 1.08218 -0.961953 1.31378
thorax -11.0577 -0.43618 1.42498
lowerneck -25.6044 -2.35019 -4.69051
upperneck -3.34638 -1.99229 5.44842
head 2.96724 -0.645058 2.28191
rclavicle -6.06293e-015 3.97569e-015
rhumerus 44.8171 12.8147 -58.5384
rradius 44.4406
rwrist -3.24708
rhand -12.0374 -34.5454
rfingers 7.12502
rthumb 14.021 -64.0525
lclavicle -6.06293e-015 3.97569e-015
lhumerus 48.4722 -12.7184 74.4148
lradius 45.403
lwrist 22.7012
lhand -11.0015 -19.6413
lfingers 7.12502
lthumb 15.0191 9.79401
rfemur -0.937154 3.08002 12.5815
rtibia 3.97569e-015
rfoot -17.9141 -16.7485
rtoes 0.596217
lfemur -15.5551 -2.89385 -14.7478
ltibia 22.6381
lfoot -15.2206 8.92204
ltoes -55.3261
502
root -0.399296 18.9086 5.07484 6.81135 2.68744 0.201061
lowerback 21.2478 -0.914962 0.588612
upperback 0.994124 -0.906751 1.32173
thorax -10.8268 -0.412929 1.39778
lowerneck -25.6355 -2.37158 -4.65959
upperneck -3.20187 -2.02672 5.33822
head 3.01549 -0.667482 2.23822
rclavicle -2.23633e-014 9.54166e-015
rhumerus 44.2788 12.4943 -59.4222
rradius 44.6085
rwrist -1.92507
rhand -11.7664 -34.1007
rfingers 7.12502
rthumb 14.2821 -63.5895
lclavicle -2.23633e-014 9.54166e-015
lhumerus 48.2316 -12.7818 73.6833
lradius 45.9885
lwrist 22.9254
lhand -10.3745 -19.8957
lfingers 7.12502
lthumb 15.623 9.49339
rfemur -0.556021 3.1369 12.7284
rtibia -7.95139e-015
rfoot -17.9876 -16.6261
rtoes 0.21786
lfemur -15.0993 -2.87905 -14.6637
ltibia 22.5741
lfoot -15.3515 9.02514
ltoes -55.4271
503
root -0.407408 18.9039 5.12117 6.56354 2.55049 0.134761
lowerback 20.7616 -0.854182 0.539139
upperback 0.899313 -0.845367 1.32318
thorax -10.6637 -0.383139 1.40067
lowerneck -25.6562 -2.41247 -4.71982
upperneck -2.97789 -2.07006 5.35993
head 3.09135 -0.68604 2.24994
rclavicle -4.07509e-015 1.70955e-014
rhumerus 43.7464 12.7073 -59.1062
rradius 45.1358
rwrist -1.80382
rhand -11.7069 -33.9791
rfingers 7.12502
rthumb 14.3394 -63.4639
lclavicle -4.07509e-015 1.70955e-014
lhumerus 47.8839 -12.8579 73.0293
lradius 46.62
lwrist 23.3357
lhand -9.82637 -19.9828
lfingers 7.12502
lthumb 16.1508 9.36431
rfemur -0.15668 3.24249 12.852
rtibia -4.77083e-015
rfoot -18.1235 -16.5145
rtoes 0.347855
lfemur -14.589 -2.92884 -14.5985
ltibia 22.5033
lfoot -15.5343 9.18073
ltoes -55.5171
504
root -0.415779 18.8999 5.16416 6.39628 2.44394 0.133497
lowerback 20.22 -0.809608 0.431902
upperback 0.799219 -0.82029 1.30932
thorax -10.4734 -0.368078 1.42979
lowerneck -25.8052 -2.43895 -4.80035
upperneck -2.62549 -2.08749 5.38592
head 3.2234 -0.689208 2.26849
rclavicle 2.25621e-014 -9.14409e-015
rhumerus 43.1617 13.0223 -58.803
rradius 45.6743
rwrist -1.78049
rhand -11.8124 -33.8644
rfingers 7.12502
rthumb 14.2378 -63.3564
lclavicle 2.25621e-014 -9.14409e-015
lhumerus 47.4484 -12.9704 72.3688
lradius 47.3113
lwrist 23.8812
lhand -9.46493 -19.9672
lfingers 7.12502
lthumb 16.4989 9.35132
rfemur 0.159883 3.2997 12.9029
rtibia -1.59028e-015
rfoot -18.2982 -16.382
rtoes 0.760303
lfemur -14.159 -3.18901 -14.5816
ltibia 22.4187
lfoot -15.8148 9.4272
ltoes -55.4323
505
root -0.423396 18.8968 5.2055 6.3287 2.35524 0.137185
lowerback 19.549 -0.781143 0.307143
upperback 0.712922 -0.819531 1.30588
thorax -10.1936 -0.364072 1.48457
lowerneck -25.903 -2.44498 -4.84453
upperneck -2.36954 -2.08577 5.37416
head 3.3166 -0.686627 2.27138
rclavicle 7.95139e-016 -1.19271e-015
rhumerus 42.5395 13.3647 -58.6171
rradius 46.1846
rwrist -1.63049
rhand -11.9135 -33.5648
rfingers 7.12502
rthumb 14.1404 -63.0636
lclavicle 7.95139e-016 -1.19271e-015
lhumerus 46.9408 -13.0995 71.7476
lradius 48.0391
lwrist 24.4296
lhand -9.26355 -19.9951
lfingers 7.12502
lthumb 16.6927 9.30715
rfemur 0.369315 3.32603 12.9427
rtibia -8.74653e-015
rfoot -18.4253 -16.2363
rtoes 0.945494
lfemur -13.8453 -3.39336 -14.563
ltibia 22.3186
lfoot -16.1084 9.6297
ltoes -55.3441
506
root -0.43148 18.8932 5.24303 6.24128 2.25426 0.101984
lowerback 18.9349 -0.755348 0.224925
upperback 0.639593 -0.810438 1.30459
thorax -9.93091 -0.35812 1.51614
lowerneck -25.868 -2.46399 -4.82439
upperneck -2.22904 -2.12068 5.33658
head 3.35691 -0.706377 2.25236
rclavicle -1.95803e-014 9.54166e-015
rhumerus 42.0834 14.1408 -57.3798
rradius 46.8934
rwrist -2.40291
rhand -12.1022 -33.5612
rfingers 7.12502
rthumb 13.9585 -63.0726
lclavicle -1.95803e-014 9.54166e-015
lhumerus 46.3803 -13.2799 71.1997
lradius 48.7833
lwrist 25.0012
lhand -8.9896 -20.0164
lfingers 7.12502
lthumb 16.9565 9.26341
rfemur 0.576637 3.37119 13.0245
rtibia 7.95139e-015
rfoot -18.5081 -16.1323
rtoes 0.885807
lfemur -13.5282 -3.53172 -14.5033
ltibia 22.2152
lfoot -16.3888 9.79448
ltoes -55.3432
507
root -0.439598 18.8903 5.27369 6.15388 2.16914 0.0875782
lowerback 18.4024 -0.731765 0.140946
upperback 0.559428 -0.803493 1.29355
thorax -9.72067 -0.352982 1.54059
lowerneck -25.7974 -2.46198 -4.71472
upperneck -2.11883 -2.14841 5.192
head 3.37957 -0.730047 2.18573
rclavicle 1.12313e-014 -8.34896e-015
rhumerus 41.1607 13.9462 -58.9131
rradius 46.9587
rwrist -0.522237
rhand -11.7163 -32.8855
rfingers 7.12502
rthumb 14.3304 -62.3709
lclavicle 1.12313e-014 -8.34896e-015
lhumerus 45.7677 -13.5494 70.6951
lradius 49.5191
lwrist 25.6321
lhand -8.81553 -20.077
lfingers 7.12502
lthumb 17.124 9.18834
rfemur 0.762345 3.39818 13.0835
rtibia 6.36111e-015
rfoot -18.573 -16.0767
rtoes 0.659543
lfemur -13.2488 -3.64942 -14.4683
ltibia 22.1255
lfoot -16.5856 9.93005
ltoes -55.358
508
root -0.445505 18.8876 5.29976 6.07173 2.08159 0.0838933
lowerback 17.8846 -0.719811 0.0550961
upperback 0.483549 -0.811362 1.27989
thorax -9.51289 -0.354915 1.56743
lowerneck -25.7263 -2.39292 -4.57843
upperneck -1.97478 -2.09472 5.01119
head 3.40807 -0.715695 2.11148
rclavicle 7.7526e-015 -5.1684e-015
rhumerus 40.4557 14.4571 -58.8496
rradius 47.4536
rwrist -0.339348
rhand -11.7138 -32.8045
rfingers 7.12502
rthumb 14.3328 -62.2898
lclavicle 7.7526e-015 -5.1684e-015
lhumerus 44.9989 -13.8543 70.2603
lradius 50.3169
lwrist 26.1774
lhand -8.80838 -20.0879
lfingers 7.12502
lthumb 17.1309 9.17687
rfemur 0.923833 3.42521 13.1239
rtibia -3.18055e-015
rfoot -18.5753 -16.0453
rtoes 0.25996
lfemur -13.0015 -3.72128 -14.4567
ltibia 22.0507
lfoot -16.6962 10.0525
ltoes -55.3605
509
root -0.450402 18.8838 5.32553 5.97513 1.97824 0.0745063
lowerback 17.3742 -0.703975 -0.00898399
upperback 0.425685 -0.807828 1.27609
thorax -9.28927 -0.352391 1.58953
lowerneck -25.6788 -2.3327 -4.43136
upperneck -1.77756 -2.05239 4.77361
head 3.45588 -0.710113 2.01617
rclavicle -1.30204e-014 1.27222e-014
rhumerus 39.7665 15.043 -58.7752
rradius 47.8059
rwrist -0.22716
rhand -11.7452 -32.6084
rfingers 7.12502
rthumb 14.3026 -62.0958
lclavicle -1.30204e-014 1.27222e-014
lhumerus 44.1272 -14.2165 69.867
lradius 51.1534
lwrist 26.6977
lhand -8.79265 -20.0655
lfingers 7.12502
lthumb 17.146 9.19802
rfemur 1.09097 3.46943 13.1611
rtibia 9.54166e-015
rfoot -18.5482 -16.0021
rtoes -0.102963
lfemur -12.7444 -3.76409 -14.4488
ltibia 21.99
lfoot -16.8195 10.1639
ltoes -55.3384
510
root -0.456077 18.8795 5.34931 5.87941 1.88651 0.0733042
lowerback 16.9144 -0.674695 -0.0564571
upperback 0.348968 -0.78164 1.27557
thorax -9.1151 -0.339256 1.60164
lowerneck -25.5517 -2.34505 -4.3226
upperneck -1.59489 -2.09526 4.5269
head 3.49257 -0.748183 1.91558
rclavicle 1.32192e-014 -1.35174e-014
rhumerus 39.052 16.0775 -57.6563
rradius 48.4682
rwrist -1.20627
rhand -11.9117 -32.6259
rfingers 7.12502
rthumb 14.1421 -62.1245
lclavicle 1.32192e-014 -1.35174e-014
lhumerus 43.1738 -14.7098 69.5501
lradius 51.9666
lwrist 27.2286
lhand -8.80832 -20.1676
lfingers 7.12502
lthumb 17.1309 9.09714
rfemur 1.25701 3.50072 13.1857
rtibia 1.11319e-014
rfoot -18.5867 -15.9059
rtoes -0.121054
lfemur -12.5072 -3.73602 -14.4504
ltibia 21.944
lfoot -16.9405 10.2062
ltoes -55.327
511
root -0.461467 18.8755 5.36852 5.7544 1.80159 0.053302
lowerback 16.5379 -0.647551 -0.0571717
upperback 0.267902 -0.750453 1.25077
thorax -8.99317 -0.325865 1.56176
lowerneck -25.3147 -2.37898 -4.31652
upperneck -1.44095 -2.15329 4.49601
head 3.51137 -0.78128 1.89886
rclavicle 1.89839e-014 -4.77083e-015
rhumerus 37.8035 16.2455 -58.8362
rradius 48.625
rwrist -0.120798
rhand -11.6604 -31.9819
rfingers 7.12502
rthumb 14.3842 -61.4635
lclavicle 1.89839e-014 -4.77083e-015
lhumerus 42.1266 -15.2962 69.335
lradius 52.7186
lwrist 27.6113
lhand -8.82506 -20.3578
lfingers 7.12502
lthumb 17.1148 8.90837
rfemur 1.44733 3.53068 13.2341
rtibia 1.59028e-014
rfoot -18.6734 -15.7793
rtoes 0.0610317
lfemur -12.251 -3.70944 -14.4285
ltibia 21.9033
lfoot -17.0619 10.2302
ltoes -55.2915
